<?xml version="1.0" encoding="UTF-8" standalone="no"?><!DOCTYPE svg PUBLIC "-//W3C//DTD SVG 1.1//EN" "http://www.w3.org/Graphics/SVG/1.1/DTD/svg11.dtd"><svg width="100%" height="100%" viewBox="0 0 771 181" version="1.1" xmlns="http://www.w3.org/2000/svg" xmlns:xlink="http://www.w3.org/1999/xlink" xml:space="preserve" xmlns:serif="http://www.serif.com/" style="fill-rule:evenodd;clip-rule:evenodd;stroke-linecap:round;stroke-linejoin:round;stroke-miterlimit:1.5;"><g><g><path d="M140.682,28.662l0,123.074c0,13.979 -11.349,25.328 -25.328,25.328l-50.657,0c-13.979,0 -25.328,-11.349 -25.328,-25.328l0,-123.074c0,-13.979 11.349,-25.328 25.328,-25.328l50.657,0c13.979,0 25.328,11.349 25.328,25.328Z" style="fill:none;stroke:#30be77;stroke-width:6.67px;"/><path d="M111.088,13.778l0,152.841c0,5.765 -4.68,10.445 -10.445,10.445l-20.889,0c-5.765,0 -10.445,-4.68 -10.445,-10.445l0,-152.841c0,-5.765 4.68,-10.445 10.445,-10.445l20.889,0c5.765,0 10.445,4.68 10.445,10.445Z" style="fill:none;stroke:#30be77;stroke-width:6.67px;"/><path d="M111.088,13.778l0,152.841c0,5.765 -4.68,10.445 -10.445,10.445l-20.889,0c-5.765,0 -10.445,-4.68 -10.445,-10.445l0,-152.841c0,-5.765 4.68,-10.445 10.445,-10.445l20.889,0c5.765,0 10.445,4.68 10.445,10.445Z" style="fill:none;stroke:#30be77;stroke-width:6.67px;"/><path d="M111.088,13.778l0,152.841c0,5.765 -4.68,10.445 -10.445,10.445l-20.889,0c-5.765,0 -10.445,-4.68 -10.445,-10.445l0,-152.841c0,-5.765 4.68,-10.445 10.445,-10.445l20.889,0c5.765,0 10.445,4.68 10.445,10.445Z" style="fill:none;stroke:#30be77;stroke-width:6.67px;"/><path d="M151.736,140.856l-123.074,0c-13.979,0 -25.328,-11.349 -25.328,-25.328l0,-50.657c0,-13.979 11.349,-25.328 25.328,-25.328l123.074,0c13.979,0 25.328,11.349 25.328,25.328l0,50.657c0,13.979 -11.349,25.328 -25.328,25.328Z" style="fill:none;stroke:#30be77;stroke-width:6.67px;"/><path d="M166.619,111.262l-152.841,0c-5.765,0 -10.445,-4.68 -10.445,-10.445l0,-20.889c0,-5.765 4.68,-10.445 10.445,-10.445l152.841,0c5.765,0 10.445,4.68 10.445,10.445l0,20.889c0,5.765 -4.68,10.445 -10.445,10.445Z" style="fill:none;stroke:#30be77;stroke-width:6.67px;"/><path d="M166.619,111.262l-152.841,0c-5.765,0 -10.445,-4.68 -10.445,-10.445l0,-20.889c0,-5.765 4.68,-10.445 10.445,-10.445l152.841,0c5.765,0 10.445,4.68 10.445,10.445l0,20.889c0,5.765 -4.68,10.445 -10.445,10.445Z" style="fill:none;stroke:#30be77;stroke-width:6.67px;"/><path d="M166.619,111.262l-152.841,0c-5.765,0 -10.445,-4.68 -10.445,-10.445l0,-20.889c0,-5.765 4.68,-10.445 10.445,-10.445l152.841,0c5.765,0 10.445,4.68 10.445,10.445l0,20.889c0,5.765 -4.68,10.445 -10.445,10.445Z" style="fill:none;stroke:#30be77;stroke-width:6.67px;"/></g><g transform="matrix(132.054303,0,0,132.054303,629.533758,125.630261)"></g><text x="210.127px" y="125.63px" style="font-family:'Roboto-Black', 'Roboto';font-weight:900;font-size:132.054px;fill:#fff;">p<tspan x="275.228px 340.136px 367.194px 425.525px 492.239px 519.297px 584.205px " y="125.63px 125.63px 125.63px 125.63px 125.63px 125.63px 125.63px ">olyglot</tspan></text><g transform="matrix(132.054303,0,0,132.054303,767.628706,125.630261)"></g><text x="647.356px" y="125.63px" style="font-family:'Roboto-ThinItalic', 'Roboto';font-weight:250;font-style:italic;font-size:132.054px;fill:#fff;">a<tspan x="706.396px 724.169px " y="125.63px 125.63px ">ir</tspan></text></g></svg>